# xmcd
#
# Track frame offsets: 
#        150
#        12930
#        28463
#        46123
#        58365
#        73390
#        90745
#        108860
#        128220
#        140230
#
# Disc length: 2122 seconds
#
# Revision: 5
# Processed by: cddbd v1.5.2PL0 Copyright (c) Steve Scherf et al.
# Submitted via: ExactAudioCopy v1.3
#
DISCID=9808480a
DTITLE=John Michael Montgomery - What I Do The Best
DYEAR=1996
DGENRE=Country
TTITLE0=Ain't Got Nothin' On Us
TTITLE1=A Few Cents Short
TTITLE2=Friends
TTITLE3=Lucky Arms
TTITLE4=What I Do The Best
TTITLE5=Cloud 8
TTITLE6=I Can Prove You Wrong
TTITLE7=How Was I To Know
TTITLE8=Paint The Town Redneck
TTITLE9=I Miss You A Little
EXTD=YEAR: 1996
EXTT0=
EXTT1=
EXTT2=
EXTT3=
EXTT4=
EXTT5=
EXTT6=
EXTT7=
EXTT8=
EXTT9=
PLAYORDER=
